{
  "source": "C:\\Users\\Peter\\Desktop\\stuff\\MIUN\\quantitative_research\\video_compression\\videos\\BVI-HD\\BVI-HD_CDVL_videos\\ORIG\\ParkPlay_1920x1080_50fps.mp4",
  "output": "C:\\Users\\Peter\\Desktop\\stuff\\MIUN\\quantitative_research\\video_compression\\compressed_videos\\BVI-HD\\h264\\1.5\\ParkPlay_1920x1080_50fps_h264.mp4",
  "codec": "h264",
  "ok": "Input #0, mov,mp4,m4a,3gp,3g2,mj2, from 'C:\\Users\\Peter\\Desktop\\stuff\\MIUN\\quantitative_research\\video_compression\\videos\\BVI-HD\\BVI-HD_CDVL_videos\\ORIG\\ParkPlay_1920x1080_50fps.mp4':\n  Metadata:\n    major_brand     : isom\n    minor_version   : 512\n    compatible_brands: isomiso2avc1mp41\n    encoder         : Lavf54.28.101\n  Duration: 00:00:05.00, start: 0.000000, bitrate: 620563 kb/s\n  Stream #0:0[0x1](und): Video: h264 (High 4:4:4 Predictive) (avc1 / 0x31637661), yuv420p(progressive), 1920x1080, 620558 kb/s, 50 fps, 50 tbr, 50 tbn (default)\n    Metadata:\n      handler_name    : VideoHandler\n      vendor_id       : [0][0][0][0]\n[out#0/mp4 @ 00000260c453f740] Codec AVOption b:a (set bitrate (in bits/s)) has not been used for any stream. The most likely reason is either wrong type (e.g. a video option with no video streams) or that it is a private option of some decoder which was not actually used for any stream.\nStream mapping:\n  Stream #0:0 -> #0:0 (h264 (native) -> h264 (libx264))\nPress [q] to stop, [?] for help\n[libx264 @ 00000260c66f0340] using cpu capabilities: MMX2 SSE2Fast SSSE3 SSE4.2 AVX FMA3 BMI2 AVX2\n[libx264 @ 00000260c66f0340] profile High, level 5.0, 4:2:0, 8-bit\n[libx264 @ 00000260c66f0340] 264 - core 165 r3222 b35605a - H.264/MPEG-4 AVC codec - Copyleft 2003-2025 - http://www.videolan.org/x264.html - options: cabac=1 ref=5 deblock=1:0:0 analyse=0x3:0x113 me=hex subme=8 psy=1 psy_rd=1.00:0.00 mixed_ref=1 me_range=16 chroma_me=1 trellis=2 8x8dct=1 cqm=0 deadzone=21,11 fast_pskip=1 chroma_qp_offset=-2 threads=18 lookahead_threads=3 sliced_threads=0 nr=0 decimate=1 interlaced=0 bluray_compat=0 constrained_intra=0 bframes=3 b_pyramid=2 b_adapt=1 b_bias=0 direct=3 weightb=1 open_gop=0 weightp=2 keyint=250 keyint_min=25 scenecut=40 intra_refresh=0 rc_lookahead=50 rc=cbr mbtree=1 bitrate=1500 ratetol=1.0 qcomp=0.60 qpmin=0 qpmax=69 qpstep=4 vbv_maxrate=1500 vbv_bufsize=1500 nal_hrd=none filler=0 ip_ratio=1.40 aq=1:1.00\nOutput #0, mp4, to 'C:\\Users\\Peter\\Desktop\\stuff\\MIUN\\quantitative_research\\video_compression\\compressed_videos\\BVI-HD\\h264\\1.5\\ParkPlay_1920x1080_50fps_h264.mp4':\n  Metadata:\n    major_brand     : isom\n    minor_version   : 512\n    compatible_brands: isomiso2avc1mp41\n    encoder         : Lavf62.3.100\n  Stream #0:0(und): Video: h264 (avc1 / 0x31637661), yuv420p(tv, progressive), 1920x1080, q=2-31, 1500 kb/s, 50 fps, 12800 tbn (default)\n    Metadata:\n      encoder         : Lavc62.11.100 libx264\n      handler_name    : VideoHandler\n      vendor_id       : [0][0][0][0]\n    Side data:\n      cpb: bitrate max/min/avg: 1500000/0/1500000 buffer size: 1500000 vbv_delay: N/A\nframe=    0 fps=0.0 q=0.0 size=       0KiB time=N/A bitrate=N/A speed=N/A elapsed=0:00:00.52    \nframe=    0 fps=0.0 q=0.0 size=       0KiB time=N/A bitrate=N/A speed=N/A elapsed=0:00:01.29    \nframe=    0 fps=0.0 q=0.0 size=       0KiB time=N/A bitrate=N/A speed=N/A elapsed=0:00:01.86    \nframe=   16 fps=6.5 q=51.0 size=       0KiB time=00:00:00.20 bitrate=   1.9kbits/s speed=0.0816x elapsed=0:00:02.45    \nframe=   44 fps= 14 q=50.0 size=       0KiB time=00:00:00.76 bitrate=   0.5kbits/s speed=0.248x elapsed=0:00:03.06    \nframe=   72 fps= 20 q=50.0 size=       0KiB time=00:00:01.32 bitrate=   0.3kbits/s speed=0.36x elapsed=0:00:03.66    \nframe=   96 fps= 23 q=50.0 size=     256KiB time=00:00:01.80 bitrate=1165.3kbits/s speed=0.426x elapsed=0:00:04.22    \nframe=  120 fps= 25 q=48.0 size=     256KiB time=00:00:02.28 bitrate= 920.0kbits/s speed=0.471x elapsed=0:00:04.83    \nframe=  142 fps= 26 q=48.0 size=     256KiB time=00:00:02.76 bitrate= 760.0kbits/s speed=0.507x elapsed=0:00:05.44    \nframe=  169 fps= 28 q=47.0 size=     512KiB time=00:00:03.28 bitrate=1278.9kbits/s speed=0.542x elapsed=0:00:06.05    \nframe=  219 fps= 33 q=46.0 size=     512KiB time=00:00:04.34 bitrate= 966.5kbits/s speed=0.652x elapsed=0:00:06.65    \n[mp4 @ 00000260c453f840] Starting second pass: moving the moov atom to the beginning of the file\n[out#0/mp4 @ 00000260c453f740] video:813KiB audio:0KiB subtitle:0KiB other streams:0KiB global headers:0KiB muxing overhead: 0.463383%\nframe=  250 fps= 36 q=-1.0 Lsize=     817KiB time=00:00:04.96 bitrate=1349.4kbits/s speed=0.72x elapsed=0:00:06.88    \n[libx264 @ 00000260c66f0340] frame I:1     Avg QP:45.96  size: 17883\n[libx264 @ 00000260c66f0340] frame P:63    Avg QP:47.87  size:  6105\n[libx264 @ 00000260c66f0340] frame B:186   Avg QP:50.21  size:  2309\n[libx264 @ 00000260c66f0340] consecutive B-frames:  0.8%  0.0%  0.0% 99.2%\n[libx264 @ 00000260c66f0340] mb I  I16..4: 61.4% 37.0%  1.6%\n[libx264 @ 00000260c66f0340] mb P  I16..4:  7.6%  4.0%  0.0%  P16..4: 21.9%  0.9%  2.5%  0.0%  0.0%    skip:63.2%\n[libx264 @ 00000260c66f0340] mb B  I16..4:  0.1%  0.1%  0.0%  B16..8: 31.4%  0.2%  0.0%  direct: 0.3%  skip:67.9%  L0:36.3% L1:63.6% BI: 0.1%\n[libx264 @ 00000260c66f0340] 8x8 transform intra:34.5% inter:90.9%\n[libx264 @ 00000260c66f0340] direct mvs  spatial:94.6% temporal:5.4%\n[libx264 @ 00000260c66f0340] coded y,uvDC,uvAC intra: 5.3% 29.9% 2.1% inter: 0.5% 3.0% 0.0%\n[libx264 @ 00000260c66f0340] i16 v,h,dc,p: 38% 29%  6% 26%\n[libx264 @ 00000260c66f0340] i8 v,h,dc,ddl,ddr,vr,hd,vl,hu:  3%  3% 59%  6%  9%  5%  7%  4%  5%\n[libx264 @ 00000260c66f0340] i4 v,h,dc,ddl,ddr,vr,hd,vl,hu:  1%  2% 10% 17% 28%  8% 15%  6% 13%\n[libx264 @ 00000260c66f0340] i8c dc,h,v,p: 83% 10%  6%  1%\n[libx264 @ 00000260c66f0340] Weighted P-Frames: Y:1.6% UV:1.6%\n[libx264 @ 00000260c66f0340] ref P L0: 63.2%  1.3% 21.4%  6.4%  7.6%  0.1%\n[libx264 @ 00000260c66f0340] ref B L0: 90.6%  6.9%  2.0%  0.6%\n[libx264 @ 00000260c66f0340] ref B L1: 96.8%  3.2%\n[libx264 @ 00000260c66f0340] kb/s:1331.24\n",
  "seconds": 7.208662986755371,
  "probe_out": {}
}